<svg width="115.000000" height="35.000000" viewBox="0 0 115 35" fill="none" xmlns="http://www.w3.org/2000/svg" xmlns:xlink="http://www.w3.org/1999/xlink">
	<desc>
			Created with Pixso.
	</desc>
	<defs/>
	<path id="Kelvin" d="M74.33 6.79Q75.12 7.28 76.22 7.28Q77.24 7.28 78 6.84Q78.29 6.67 78.54 6.44Q78.99 6.02 79.22 5.49Q79.45 4.96 79.45 4.34Q79.45 3.64 79.18 3.07Q78.95 2.6 78.54 2.21Q78.28 1.97 77.98 1.8Q77.22 1.36 76.22 1.36Q75.13 1.36 74.35 1.85Q74.09 2 73.87 2.21Q73.45 2.6 73.22 3.07Q72.95 3.64 72.95 4.34Q72.95 4.96 73.18 5.49Q73.41 6.02 73.87 6.44Q74.08 6.64 74.33 6.79ZM49.46 27L49.46 3.32L44 3.32L44 27L49.46 27ZM7.45 17.07L15 27L21.69 27L12.67 15.54L21.37 4.53L14.94 4.53L7.45 14.39L7.45 4.53L1.98 4.53L1.98 27L7.45 27L7.45 17.07ZM41.02 19.38Q41.11 18.55 41.11 17.78Q41.11 15.09 39.98 13.07Q39.38 12 38.52 11.19Q37.77 10.48 36.83 9.97Q36.81 9.96 36.79 9.95Q34.79 8.89 32.22 8.89Q29.57 8.89 27.52 10L27.52 10Q26.62 10.49 25.89 11.17Q24.97 12.04 24.33 13.21Q23.2 15.28 23.2 18.07Q23.2 20.85 24.35 22.93Q24.99 24.09 25.92 24.96Q26.65 25.64 27.55 26.14Q27.63 26.18 27.72 26.23Q29.7 27.25 32.22 27.25Q34.39 27.25 36.15 26.46Q37.56 25.81 38.59 24.79Q38.85 24.53 39.08 24.25Q39.7 23.5 40.11 22.66Q40.49 21.91 40.7 21.07L34.88 21.07Q34.52 21.83 33.93 22.25Q33.18 22.8 32.03 22.8Q31.17 22.8 30.48 22.46Q30.06 22.26 29.71 21.92Q29.64 21.87 29.58 21.8Q28.75 20.93 28.63 19.38L41.02 19.38ZM97.52 9.92Q95.96 8.95 93.79 8.95Q92.02 8.95 90.62 9.64Q89.5 10.18 88.74 11.05Q88.55 11.27 88.38 11.51L88.38 9.14L82.91 9.14L82.91 27L88.38 27L88.38 17.3Q88.38 15.6 89.22 14.62Q89.26 14.57 89.31 14.52Q89.57 14.24 89.87 14.04Q90.67 13.53 91.81 13.53Q92.92 13.53 93.71 14.03Q94.03 14.23 94.3 14.52Q94.34 14.57 94.39 14.62Q95.23 15.6 95.23 17.3L95.23 27L100.67 27L100.67 16.57Q100.67 13.27 99.05 11.28Q98.93 11.13 98.79 10.98Q98.22 10.35 97.52 9.92ZM65.34 9.14L61.47 21.88L57.59 9.14L51.74 9.14L58.08 27L64.83 27L71.16 9.14L65.34 9.14ZM78.94 27L78.94 9.14L73.47 9.14L73.47 27L78.94 27ZM35.12 14.76Q35.52 15.43 35.52 16.34L28.67 16.34Q28.86 15.07 29.59 14.3Q29.7 14.18 29.83 14.07Q30.09 13.85 30.39 13.69Q31.16 13.27 32.16 13.27Q33.22 13.27 34.02 13.73Q34.31 13.89 34.56 14.1Q34.9 14.4 35.12 14.76Z" fill="#000000" fill-opacity="1.000000" fill-rule="evenodd"/>
	<circle id="Ellipse 1" cx="111.000000" cy="31.000000" r="4.000000" fill="#FDA300" fill-opacity="1.000000"/>
</svg>
